Coordinates
version=1
nRows=15
nColumns=23
inDegrees=yes

Units are S.I. units (second, meters, Newtons, ...)
If the header above contains a line with 'inDegrees', this indicates whether rotational values are in degrees (yes) or radians (no).

endheader
time	pelvis_tilt	pelvis_list	pelvis_rotation	pelvis_tx	pelvis_ty	pelvis_tz	hip_flexion_r	hip_adduction_r	hip_rotation_r	knee_angle_r	knee_angle_r_beta	ankle_angle_r	subtalar_angle_r	mtp_angle_r	hip_flexion_l	hip_adduction_l	hip_rotation_l	knee_angle_l	knee_angle_l_beta	ankle_angle_l	subtalar_angle_l	mtp_angle_l
      0.00000000	     -0.20145885	      3.13570923	      0.59433015	      1.93757948	      0.87010928	      1.01014112	    -27.00658265	     -1.62576952	    -14.54132073	     29.03320191	      0.50672497	    -16.65543355	     -1.91682994	      0.00000000	     31.00511767	      5.45882047	      2.69233978	     23.90649881	      0.41724712	     -2.52903921	      0.22806055	      0.00000000
      0.00666667	      0.40369735	      3.11154834	      1.17722933	      1.93830031	      0.86945973	      1.00955820	    -26.31412256	     -1.71727703	    -14.40846107	     33.64393610	      0.58719746	    -15.80657405	     -4.93530607	      0.00000000	     29.89410277	      5.79320013	      2.12193229	     23.14214402	      0.40390661	     -2.82151324	      0.96901958	      0.00000000
      0.01333333	      0.89626847	      3.20677396	      1.71965860	      1.93892192	      0.86836826	      1.00905449	    -25.55409227	     -1.91192945	    -14.31384459	     38.15152745	      0.66586977	    -15.10701166	     -7.73451773	      0.00000000	     28.96368852	      6.19485313	      1.39076676	     22.61088273	      0.39463435	     -2.99798378	      1.76808178	      0.00000000
      0.02000000	      1.32159035	      3.36446277	      2.27017019	      1.93941371	      0.86688633	      1.00855829	    -24.72292969	     -2.13898621	    -14.23962436	     42.60848304	      0.74365832	    -14.56485570	    -10.27005808	      0.00000000	     28.16692806	      6.66692528	      0.70940382	     22.42803343	      0.39144303	     -3.10333136	      2.27460937	      0.00000000
      0.02666667	      1.59663552	      3.52752086	      2.80583459	      1.93974060	      0.86496367	      1.00806845	    -23.63931761	     -2.41767211	    -14.22881118	     47.12869186	      0.82255085	    -14.20826382	    -12.44799861	      0.00000000	     27.59479816	      7.14328194	      0.09275590	     22.68820772	      0.39598393	     -3.18068216	      2.38096281	      0.00000000
      0.03333333	      2.34241947	      3.60136971	      3.65252901	      1.94009683	      0.86339599	      1.00729041	    -23.18861913	     -2.45693668	    -14.63253458	     51.24913845	      0.89446620	    -14.20818373	    -14.08058883	      0.00000000	     26.51960785	      7.66314500	     -0.03265486	     23.39169179	      0.40826204	     -3.05299857	      2.12992247	      0.00000000
      0.04000000	      2.11057513	      4.01695467	      4.06754529	      1.94004341	      0.86021181	      1.00682546	    -21.24752207	     -3.32623829	    -14.87000174	     56.20925830	      0.98103663	    -14.10223156	    -15.83340576	      0.00000000	     26.50939692	      8.41843514	     -0.42439631	     24.45156731	      0.42676036	     -2.91405345	      0.94491673	      0.00000000
      0.04666667	      2.28616366	      4.27422377	      4.84512760	      1.93996442	      0.85727993	      1.00595607	    -19.85555387	     -3.90280857	    -15.46979254	     60.76273181	      1.06050973	    -14.21549896	    -17.00124026	      0.00000000	     26.07465202	      9.18146917	     -0.21539610	     26.00897353	      0.45394222	     -2.41455794	     -0.56419419	      0.00000000
      0.05333333	      2.44845681	      4.56710511	      5.65635762	      1.93974064	      0.85402939	      1.00500433	    -18.38143391	     -4.60280490	    -16.14984266	     65.28222498	      1.13938977	    -14.43584465	    -18.05193939	      0.00000000	     25.62456924	      9.99302425	      0.12004125	     27.90894894	      0.48710305	     -1.61650819	     -2.23107116	      0.00000000
      0.06000000	      2.62969099	      4.84542878	      6.50195969	      1.93934854	      0.85055958	      1.00400707	    -16.87035109	     -5.37637743	    -16.89129343	     69.71386769	      1.21673653	    -14.65861963	    -18.91900411	      0.00000000	     25.10872678	     10.80556702	      0.63098570	     30.08145691	      0.52502047	     -0.37899564	     -3.97071373	      0.00000000
      0.06666667	      2.79480178	      5.10821021	      7.34520667	      1.93875645	      0.84685777	      1.00300953	    -15.26361657	     -6.21599993	    -17.60177710	     74.05088324	      1.29243173	    -14.76559934	    -19.59714489	      0.00000000	     24.54615454	     11.59919783	      1.26636092	     32.41816160	      0.56580366	      1.23089034	     -5.67856722	      0.00000000
      0.07333333	      2.95306300	      5.34387027	      8.16152873	      1.93795712	      0.84302467	      1.00208486	    -13.56725406	     -7.10076824	    -18.23641465	     78.25146085	      1.36574564	    -14.74983697	    -20.17988321	      0.00000000	     23.92800748	     12.31093383	      1.90335216	     34.84676846	      0.60819084	      3.18472310	     -7.06800878	      0.00000000
      0.08000000	      3.10229226	      5.55280729	      8.93775092	      1.93694162	      0.83917298	      1.00127596	    -11.77145595	     -8.01613560	    -18.76151718	     82.28083456	      1.43607147	    -14.58535690	    -20.63952371	      0.00000000	     23.24241255	     12.92613234	      2.54170341	     37.26416373	      0.65038235	      5.39779584	     -8.05466005	      0.00000000
      0.08666667	      3.25220809	      5.73292164	      9.56445481	      1.93571701	      0.83544234	      1.00074259	     -9.81747976	     -8.96102556	    -19.04361696	     86.14430280	      1.50350172	    -14.17944830	    -20.90515015	      0.00000000	     22.47160176	     13.37474235	      3.06534744	     39.58793288	      0.69093977	      7.75031021	     -8.71915670	      0.00000000
      0.09333333	      3.38704043	      5.90260561	     10.09079143	      1.93433999	      0.83197523	      1.00038432	     -7.72079082	     -9.92442448	    -19.11868117	     89.76610398	      1.56671407	    -13.65638975	    -21.01774313	      0.00000000	     21.59510152	     13.70279735	      3.54209728	     41.71026673	      0.72798149	     10.17724599	     -8.93561599	      0.00000000
